<svg xmlns="http://www.w3.org/2000/svg" xmlns:xlink="http://www.w3.org/1999/xlink" width="1000.999" height="1001.435" viewBox="0 0 1000.999 1001.435"><defs><filter id="a"><feOffset dy="3" input="SourceAlpha"/><feGaussianBlur stdDeviation="8" result="b"/><feFlood flood-opacity="0.169" result="c"/><feComposite operator="out" in="SourceGraphic" in2="b"/><feComposite operator="in" in="c"/><feComposite operator="in" in2="SourceGraphic"/></filter></defs><g data-type="innerShadowGroup"><path d="M-14289.648-2964.045c-131.3-128.728-139.762-337.4-19.318-476.338a26.952,26.952,0,0,1,4.593-5.133l247.162-258.51a17.287,17.287,0,0,1,24.039,0,95.624,95.624,0,0,1,0,126.421l-9.182,8.91s-105.081,109.945-137.224,145.6c-36.2,39.713-104.807,119.67-104.807,213.669.594,129.816,106,234.742,235.819,234.737,54.024,0,108.048-18.367,177.2-75.359a1607.1,1607.1,0,0,0,162.072-164.778l4.324-3.784,175.58-176.662a55.645,55.645,0,0,1,78.6,0v1.624a55.632,55.632,0,0,1,16.527,39.382,55.635,55.635,0,0,1-16.253,39.492s-359.268,359-362.507,360.616a346.988,346.988,0,0,1-233.022,89.6A346.993,346.993,0,0,1-14289.648-2964.045Zm52.532-265.643a220.712,220.712,0,0,1,61.321-148.3l473.256-473.257a50.78,50.78,0,0,1,71.582,0l7.293,7.019a50.78,50.78,0,0,1,0,71.582l-340.084,342.791c-139.37,139.336-145.832,141.843-146.139,142.9a96.429,96.429,0,0,0-2.614,130.979,96.435,96.435,0,0,0,130.385,12.727c8.1-6.215,31.335-30.256,31.335-30.256l459.213-459.208a56.432,56.432,0,0,1,40.516-17.142,56.44,56.44,0,0,1,40.518,17.142l.273-1.35a56.2,56.2,0,0,1,17.261,40.517,56.206,56.206,0,0,1-17.261,40.517s-331.444,339.549-447.331,447.6c-34.3,31.875-99.94,85.9-169.365,85.9C-14143.025-3019.533-14237.116-3113.624-14237.116-3229.688Zm165.318,46.732a57.3,57.3,0,0,1,0-81.039l48.081-45.917,99.943-99.947,409.781-410.323a56.725,56.725,0,0,1,61.778-12.123,56.731,56.731,0,0,1,34.927,52.372,55.925,55.925,0,0,1-16.48,39.981l-557,557a57.122,57.122,0,0,1-40.518,16.783A57.122,57.122,0,0,1-14071.8-3182.956Z" transform="translate(14394 3865.999)" fill="#c25690" opacity="0.23"/><g transform="matrix(1, 0, 0, 1, 0, 0)" filter="url(#a)"><path d="M-14289.648-2964.045c-131.3-128.728-139.762-337.4-19.318-476.338a26.952,26.952,0,0,1,4.593-5.133l247.162-258.51a17.287,17.287,0,0,1,24.039,0,95.624,95.624,0,0,1,0,126.421l-9.182,8.91s-105.081,109.945-137.224,145.6c-36.2,39.713-104.807,119.67-104.807,213.669.594,129.816,106,234.742,235.819,234.737,54.024,0,108.048-18.367,177.2-75.359a1607.1,1607.1,0,0,0,162.072-164.778l4.324-3.784,175.58-176.662a55.645,55.645,0,0,1,78.6,0v1.624a55.632,55.632,0,0,1,16.527,39.382,55.635,55.635,0,0,1-16.253,39.492s-359.268,359-362.507,360.616a346.988,346.988,0,0,1-233.022,89.6A346.993,346.993,0,0,1-14289.648-2964.045Zm52.532-265.643a220.712,220.712,0,0,1,61.321-148.3l473.256-473.257a50.78,50.78,0,0,1,71.582,0l7.293,7.019a50.78,50.78,0,0,1,0,71.582l-340.084,342.791c-139.37,139.336-145.832,141.843-146.139,142.9a96.429,96.429,0,0,0-2.614,130.979,96.435,96.435,0,0,0,130.385,12.727c8.1-6.215,31.335-30.256,31.335-30.256l459.213-459.208a56.432,56.432,0,0,1,40.516-17.142,56.44,56.44,0,0,1,40.518,17.142l.273-1.35a56.2,56.2,0,0,1,17.261,40.517,56.206,56.206,0,0,1-17.261,40.517s-331.444,339.549-447.331,447.6c-34.3,31.875-99.94,85.9-169.365,85.9C-14143.025-3019.533-14237.116-3113.624-14237.116-3229.688Zm165.318,46.732a57.3,57.3,0,0,1,0-81.039l48.081-45.917,99.943-99.947,409.781-410.323a56.725,56.725,0,0,1,61.778-12.123,56.731,56.731,0,0,1,34.927,52.372,55.925,55.925,0,0,1-16.48,39.981l-557,557a57.122,57.122,0,0,1-40.518,16.783A57.122,57.122,0,0,1-14071.8-3182.956Z" transform="translate(14394 3866)" fill="#fff" opacity="0.23"/></g></g></svg>