<svg xmlns="http://www.w3.org/2000/svg" width="982.001" height="982.606" viewBox="0 0 982.001 982.606"><path d="M-14291.627-2981c-128.812-126.306-137.115-331.057-18.953-467.383a26.444,26.444,0,0,1,4.5-5.035l242.473-253.65a16.961,16.961,0,0,1,23.584,0,93.838,93.838,0,0,1,0,124.043l-9.01,8.748s-103.084,107.873-134.617,142.857c-35.51,38.961-102.818,117.416-102.818,209.65.582,127.376,103.986,230.327,231.344,230.327,53,0,106-18.025,173.834-73.95a1576.122,1576.122,0,0,0,159-161.675l4.242-3.713,172.248-173.34a54.588,54.588,0,0,1,77.115,0v1.592a54.6,54.6,0,0,1,16.211,38.641,54.592,54.592,0,0,1-15.949,38.751s-352.441,352.245-355.623,353.836a340.371,340.371,0,0,1-228.6,87.911A340.367,340.367,0,0,1-14291.627-2981Zm51.539-260.646a216.541,216.541,0,0,1,60.15-145.511l464.275-464.359a49.813,49.813,0,0,1,70.223,0l7.158,6.89a49.837,49.837,0,0,1,0,70.24l-333.631,336.341-89.834,89.85c-46.891,46.867-53.232,49.326-53.531,50.36a94.631,94.631,0,0,0-2.564,128.516,94.592,94.592,0,0,0,127.91,12.49c7.947-6.1,30.736-29.687,30.736-29.687l450.5-450.577a55.381,55.381,0,0,1,39.75-16.821,55.4,55.4,0,0,1,39.752,16.821l.262-1.325a55.141,55.141,0,0,1,16.934,39.757,55.148,55.148,0,0,1-16.934,39.757s-325.154,333.16-438.836,439.181c-33.654,31.271-98.051,84.282-166.154,84.282C-14147.785-3035.447-14240.088-3127.767-14240.088-3241.651Zm162.174,45.851a56.235,56.235,0,0,1,0-79.514l47.17-45.055,98.049-98.069,402-402.6a55.653,55.653,0,0,1,60.6-11.9,55.657,55.657,0,0,1,34.264,51.394,54.847,54.847,0,0,1-16.164,39.224l-546.424,546.524a56.031,56.031,0,0,1-39.75,16.469A56.031,56.031,0,0,1-14077.914-3195.8Z" transform="translate(14394.001 3866)" fill="#e2f0fb"/></svg>