<svg xmlns="http://www.w3.org/2000/svg" width="156.418" height="66.044" viewBox="0 0 156.418 66.044"><path d="M60.211,30.849s-22.816,22.8-23.022,22.9a22.1,22.1,0,0,1-31.5-30.879h0a1.716,1.716,0,0,1,.292-.326l15.7-16.417a1.1,1.1,0,0,1,1.527,0h0a6.073,6.073,0,0,1,0,8.029l-.583.566s-6.673,6.982-8.715,9.247c-2.3,2.522-6.656,7.6-6.656,13.57A14.976,14.976,0,0,0,22.23,52.447c3.431,0,6.862-1.167,11.254-4.786A102.074,102.074,0,0,0,43.776,37.2l.274-.24h0L55.2,25.737a3.534,3.534,0,0,1,4.992,0v.1a3.534,3.534,0,0,1,.017,5.009Z" transform="translate(-0.292 4.158)" fill="#d6d6d6"/><path d="M54.231,4.693a3.551,3.551,0,0,1-1.046,2.539L17.811,42.605a3.639,3.639,0,0,1-5.146-5.146l3.054-2.916L22.065,28.2,48.09,2.137a3.6,3.6,0,0,1,6.141,2.556Z" transform="translate(7.798 0.773)" fill="#d6d6d6"/><path d="M58.594,14.819a3.585,3.585,0,0,0-5.146,0L24.284,43.983s-1.475,1.527-1.99,1.921a6.124,6.124,0,0,1-8.114-9.126c.019-.067.43-.226,9.281-9.075h0l21.6-21.77a3.225,3.225,0,0,0,0-4.546L44.6.941a3.225,3.225,0,0,0-4.546,0L9.994,31h0A14.016,14.016,0,0,0,6.1,40.414,13.347,13.347,0,0,0,19.447,53.761c4.409,0,8.577-3.431,10.756-5.455C37.562,41.444,58.611,19.88,58.611,19.88a3.568,3.568,0,0,0,0-5.146Z" transform="translate(3.864 -0.004)" fill="#d6d6d6"/><text transform="translate(70.418 30.044)" fill="#d6d6d6" font-size="23" font-family="Effra-Light, Effra" font-weight="300"><tspan x="0" y="0" letter-spacing="-0.02em">C</tspan><tspan y="0">on</tspan><tspan y="0" letter-spacing="-0.03em">c</tspan><tspan y="0">o</tspan><tspan y="0" letter-spacing="-0.03em">r</tspan><tspan y="0">d </tspan><tspan x="0" y="28" letter-spacing="-0.02em">M</tspan><tspan y="28">edia</tspan></text></svg>