<svg xmlns="http://www.w3.org/2000/svg" width="303.983" height="127.727" viewBox="0 0 303.983 127.727"><defs><style>.a,.d{fill:#fff;}.a{font-size:46px;font-family:Effra-Light, Effra;font-weight:300;}.b{letter-spacing:-0.02em;}.c{letter-spacing:-0.03em;}</style></defs><g transform="translate(-564.017 -51.436)"><text class="a" transform="translate(696 108.163)"><tspan class="b" x="0" y="0">C</tspan><tspan y="0">on</tspan><tspan class="c" y="0">c</tspan><tspan y="0">o</tspan><tspan class="c" y="0">r</tspan><tspan y="0">d </tspan><tspan class="b" x="0" y="56">M</tspan><tspan y="56">edia</tspan></text><path class="d" d="M112.6,52.732S69.833,95.464,69.447,95.657A41.414,41.414,0,0,1,10.414,37.781h0a3.215,3.215,0,0,1,.547-.611L40.381,6.4a2.058,2.058,0,0,1,2.862,0h0a11.382,11.382,0,0,1,0,15.048l-1.093,1.061S29.641,35.594,25.815,39.838C21.507,44.565,13.34,54.082,13.34,65.272A28.07,28.07,0,0,0,41.41,93.213c6.431,0,12.861-2.186,21.093-8.971A191.316,191.316,0,0,0,81.794,64.629l.514-.45h0l20.9-21.028a6.624,6.624,0,0,1,9.357,0v.193a6.624,6.624,0,0,1,.032,9.389Z" transform="translate(563.725 64.317)"/><path class="d" d="M91.5,7.843A6.656,6.656,0,0,1,89.543,12.6l-66.3,66.3A6.821,6.821,0,0,1,13.6,69.256L19.32,63.79l11.9-11.9L79.993,3.052A6.752,6.752,0,0,1,91.5,7.843Z" transform="translate(588.772 53.838)"/><path class="d" d="M104.489,27.772a6.72,6.72,0,0,0-9.646,0L40.183,82.433s-2.765,2.862-3.73,3.6A11.479,11.479,0,0,1,21.244,68.929a.354.354,0,0,1,.611-.129,1.832,1.832,0,0,1,.322-.418l5.563-5.563,10.9-10.9h0l40.481-40.8a6.045,6.045,0,0,0,0-8.521l-.868-.836a6.045,6.045,0,0,0-8.521,0L13.4,58.093h0A26.269,26.269,0,0,0,6.1,75.745a25.015,25.015,0,0,0,25.015,25.015c8.263,0,16.077-6.431,20.16-10.225,13.794-12.861,53.246-53.278,53.246-53.278a6.688,6.688,0,0,0,0-9.646Z" transform="translate(576.591 51.432)"/></g></svg>