<svg xmlns="http://www.w3.org/2000/svg" xmlns:xlink="http://www.w3.org/1999/xlink" width="157.116" height="66.183" viewBox="0 0 157.116 66.183"><defs><linearGradient id="a" x1="0.883" y1="0.084" x2="-0.087" y2="1" gradientUnits="objectBoundingBox"><stop offset="0" stop-color="#2700f6"/><stop offset="1" stop-color="#ff7f83"/></linearGradient></defs><g transform="translate(-0.292 -0.004)"><g transform="translate(0.292 0.004)"><path d="M60.805,31.1S37.763,54.123,37.555,54.227A22.315,22.315,0,0,1,5.746,23.041h0a1.733,1.733,0,0,1,.295-.329L21.893,6.132a1.109,1.109,0,0,1,1.542,0h0a6.133,6.133,0,0,1,0,8.108l-.589.572s-6.739,7.051-8.8,9.338c-2.322,2.547-6.722,7.675-6.722,13.7A15.125,15.125,0,0,0,22.447,52.91c3.465,0,6.93-1.178,11.365-4.834a103.088,103.088,0,0,0,10.4-10.568l.277-.243h0L55.746,25.935a3.569,3.569,0,0,1,5.042,0v.1a3.569,3.569,0,0,1,.017,5.059Z" transform="translate(-0.292 4.257)" fill="url(#a)"/><path d="M54.654,4.728A3.586,3.586,0,0,1,53.6,7.293L17.873,43.017a3.675,3.675,0,0,1-5.2-5.2l3.084-2.945,6.41-6.41L48.452,2.147a3.638,3.638,0,0,1,6.2,2.581Z" transform="translate(7.99 0.792)" fill="url(#a)"/><path d="M59.115,14.966a3.621,3.621,0,0,0-5.2,0L24.465,44.419s-1.49,1.542-2.01,1.94a6.185,6.185,0,0,1-8.195-9.217c.02-.068.434-.228,9.373-9.165h0L45.445,5.992a3.257,3.257,0,0,0,0-4.591L44.978.95a3.257,3.257,0,0,0-4.591,0L10.033,31.3h0A14.155,14.155,0,0,0,6.1,40.815,13.479,13.479,0,0,0,19.579,54.294c4.453,0,8.663-3.465,10.863-5.509,7.432-6.93,28.69-28.708,28.69-28.708a3.6,3.6,0,0,0,0-5.2Z" transform="translate(3.962 -0.004)" fill="url(#a)"/><text transform="translate(71.116 30.183)" fill="#3b3b3b" font-size="23" font-family="Effra-Light, Effra" font-weight="300"><tspan x="0" y="0" letter-spacing="-0.02em">C</tspan><tspan y="0">on</tspan><tspan y="0" letter-spacing="-0.03em">c</tspan><tspan y="0">o</tspan><tspan y="0" letter-spacing="-0.03em">r</tspan><tspan y="0">d </tspan><tspan x="0" y="28" letter-spacing="-0.02em">M</tspan><tspan y="28">edia</tspan></text></g></g></svg>