<svg xmlns="http://www.w3.org/2000/svg" xmlns:xlink="http://www.w3.org/1999/xlink" width="1000.999" height="1001.435" viewBox="0 0 1000.999 1001.435"><defs><filter id="a"><feOffset dy="3" input="SourceAlpha"/><feGaussianBlur stdDeviation="8" result="b"/><feFlood flood-opacity="0.169" result="c"/><feComposite operator="out" in="SourceGraphic" in2="b"/><feComposite operator="in" in="c"/><feComposite operator="in" in2="SourceGraphic"/></filter></defs><g data-type="innerShadowGroup"><path d="M-14289.648-2964.045c-131.3-128.728-139.762-337.4-19.316-476.338a26.845,26.845,0,0,1,4.592-5.133l247.162-258.51a17.287,17.287,0,0,1,24.039,0,95.621,95.621,0,0,1,0,126.42l-9.184,8.91s-105.08,109.945-137.223,145.6c-36.2,39.713-104.807,119.67-104.807,213.67.594,129.816,106,234.743,235.82,234.737,54.023,0,108.049-18.368,177.2-75.36a1607,1607,0,0,0,162.072-164.778l4.324-3.783,175.58-176.662a55.646,55.646,0,0,1,78.605,0v1.624a55.638,55.638,0,0,1,16.527,39.383,55.631,55.631,0,0,1-16.254,39.492s-359.266,359-362.508,360.616a346.983,346.983,0,0,1-233.021,89.6A347,347,0,0,1-14289.648-2964.045Zm52.533-265.643a220.712,220.712,0,0,1,61.32-148.3l473.256-473.256a50.779,50.779,0,0,1,71.582,0l7.295,7.019a50.782,50.782,0,0,1,0,71.582l-340.086,342.791-91.572,91.573-46.732,46.732a15.476,15.476,0,0,0-2.7,3.509,2.965,2.965,0,0,0-2.889-1,2.969,2.969,0,0,0-2.244,2.08,96.431,96.431,0,0,0-2.613,130.979,96.436,96.436,0,0,0,130.385,12.727c8.1-6.216,31.334-30.257,31.334-30.257l459.213-459.208a56.434,56.434,0,0,1,40.516-17.142,56.442,56.442,0,0,1,40.518,17.142l.273-1.35a56.2,56.2,0,0,1,17.262,40.517,56.2,56.2,0,0,1-17.262,40.517s-331.443,339.549-447.33,447.6c-34.3,31.875-99.941,85.9-169.365,85.9C-14143.025-3019.533-14237.115-3113.624-14237.115-3229.687Zm165.318,46.732a57.305,57.305,0,0,1,0-81.039l48.082-45.917,99.941-99.947,409.783-410.323a56.721,56.721,0,0,1,61.777-12.123,56.729,56.729,0,0,1,34.926,52.372,55.915,55.915,0,0,1-16.48,39.981l-556.994,557a57.127,57.127,0,0,1-40.52,16.783A57.121,57.121,0,0,1-14071.8-3182.956Z" transform="translate(14393.999 3865.999)" fill="#64395a" opacity="0.23"/><g transform="matrix(1, 0, 0, 1, 0, 0)" filter="url(#a)"><path d="M-14289.648-2964.045c-131.3-128.728-139.762-337.4-19.316-476.338a26.845,26.845,0,0,1,4.592-5.133l247.162-258.51a17.287,17.287,0,0,1,24.039,0,95.621,95.621,0,0,1,0,126.42l-9.184,8.91s-105.08,109.945-137.223,145.6c-36.2,39.713-104.807,119.67-104.807,213.67.594,129.816,106,234.743,235.82,234.737,54.023,0,108.049-18.368,177.2-75.36a1607,1607,0,0,0,162.072-164.778l4.324-3.783,175.58-176.662a55.646,55.646,0,0,1,78.605,0v1.624a55.638,55.638,0,0,1,16.527,39.383,55.631,55.631,0,0,1-16.254,39.492s-359.266,359-362.508,360.616a346.983,346.983,0,0,1-233.021,89.6A347,347,0,0,1-14289.648-2964.045Zm52.533-265.643a220.712,220.712,0,0,1,61.32-148.3l473.256-473.256a50.779,50.779,0,0,1,71.582,0l7.295,7.019a50.782,50.782,0,0,1,0,71.582l-340.086,342.791-91.572,91.573-46.732,46.732a15.476,15.476,0,0,0-2.7,3.509,2.965,2.965,0,0,0-2.889-1,2.969,2.969,0,0,0-2.244,2.08,96.431,96.431,0,0,0-2.613,130.979,96.436,96.436,0,0,0,130.385,12.727c8.1-6.216,31.334-30.257,31.334-30.257l459.213-459.208a56.434,56.434,0,0,1,40.516-17.142,56.442,56.442,0,0,1,40.518,17.142l.273-1.35a56.2,56.2,0,0,1,17.262,40.517,56.2,56.2,0,0,1-17.262,40.517s-331.443,339.549-447.33,447.6c-34.3,31.875-99.941,85.9-169.365,85.9C-14143.025-3019.533-14237.115-3113.624-14237.115-3229.687Zm165.318,46.732a57.305,57.305,0,0,1,0-81.039l48.082-45.917,99.941-99.947,409.783-410.323a56.721,56.721,0,0,1,61.777-12.123,56.729,56.729,0,0,1,34.926,52.372,55.915,55.915,0,0,1-16.48,39.981l-556.994,557a57.127,57.127,0,0,1-40.52,16.783A57.121,57.121,0,0,1-14071.8-3182.956Z" transform="translate(14394 3866)" fill="#fff" opacity="0.23"/></g></g></svg>