<svg xmlns="http://www.w3.org/2000/svg" xmlns:xlink="http://www.w3.org/1999/xlink" width="635.723" height="636" viewBox="0 0 635.723 636"><defs><style>.a{fill:#fff;}.b{filter:url(#a);}</style><filter id="a"><feOffset dy="3" input="SourceAlpha"/><feGaussianBlur stdDeviation="8" result="b"/><feFlood flood-opacity="0.169" result="c"/><feComposite operator="out" in="SourceGraphic" in2="b"/><feComposite operator="in" in="c"/><feComposite operator="in" in2="SourceGraphic"/></filter></defs><g class="b" transform="matrix(1, 0, 0, 1, 0, 0)"><path class="a" d="M-14327.727-3293.179A220.959,220.959,0,0,1-14340-3595.7a17.09,17.09,0,0,1,2.916-3.26l156.97-164.177a10.979,10.979,0,0,1,15.268,0,60.728,60.728,0,0,1,0,80.288l-5.832,5.659s-66.735,69.825-87.148,92.467c-22.989,25.221-66.562,76-66.562,135.7a149.763,149.763,0,0,0,149.767,149.079c34.31,0,68.62-11.665,112.536-47.86a1020.648,1020.648,0,0,0,102.93-104.649l2.746-2.4,111.509-112.2a35.341,35.341,0,0,1,49.922,0v1.031a35.336,35.336,0,0,1,10.5,25.011,35.333,35.333,0,0,1-10.322,25.081s-228.166,228-230.225,229.023a220.367,220.367,0,0,1-147.989,56.9A220.37,220.37,0,0,1-14327.727-3293.179Zm33.362-168.707a140.176,140.176,0,0,1,38.944-94.182l300.56-300.56a32.249,32.249,0,0,1,45.461,0l4.632,4.458a32.251,32.251,0,0,1,0,45.461l-215.984,217.7-58.156,58.157-29.68,29.679a9.832,9.832,0,0,0-1.715,2.229,1.882,1.882,0,0,0-1.834-.633,1.885,1.885,0,0,0-1.426,1.321,61.242,61.242,0,0,0-1.66,83.183,61.246,61.246,0,0,0,82.807,8.083c5.145-3.948,19.9-19.216,19.9-19.216l291.641-291.638a35.843,35.843,0,0,1,25.731-10.887,35.847,35.847,0,0,1,25.732,10.887l.173-.857a35.69,35.69,0,0,1,10.963,25.732,35.69,35.69,0,0,1-10.963,25.732s-210.5,215.644-284.094,284.264c-21.784,20.243-63.472,54.553-107.562,54.553A133.469,133.469,0,0,1-14294.364-3461.885Zm104.992,29.679a36.393,36.393,0,0,1,0-51.467l30.536-29.162,63.472-63.475,260.248-260.591a36.024,36.024,0,0,1,39.234-7.7,36.03,36.03,0,0,1,22.182,33.261,35.516,35.516,0,0,1-10.467,25.392l-353.741,353.741a36.278,36.278,0,0,1-25.732,10.659A36.277,36.277,0,0,1-14189.372-3432.206Z" transform="translate(14394 3866)"/></g></svg>