<svg xmlns="http://www.w3.org/2000/svg" width="1949" height="1949" viewBox="0 0 1949 1949">
  <g id="Group_212" data-name="Group 212" transform="translate(-946 450)">

    <g id="Group_138" data-name="Group 138">
      <text id="Audit_SEO" data-name="Audit SEO" transform="translate(1311 311)" fill="#111" font-size="26" font-family="FuturaBT-Book, Futura Bk BT"><tspan x="0" y="25">AUDIT SEO</tspan></text>
      <text id="_Local_SEO" data-name=" Local SEO" transform="translate(1271 422)" fill="#111" font-size="26" font-family="FuturaBT-Book, Futura Bk BT"><tspan x="0" y="25" xml:space="preserve"> LOCAL SEO</tspan></text>
      <text id="Global_SEO" data-name="Global SEO" transform="translate(1283 558)" fill="#111" font-size="26" font-family="FuturaBT-Book, Futura Bk BT"><tspan x="0" y="25">GLOBAL SEO</tspan></text>
      <text id="Technical_SEO" data-name="Technical SEO" transform="translate(1297 686)" fill="#111" font-size="26" font-family="FuturaBT-Book, Futura Bk BT"><tspan x="0" y="25">TECHNICAL SEO</tspan></text>
      <text id="Conversion_Rate_Optimization_CRO_" data-name="Conversion Rate Optimization (CRO)
" transform="translate(1355 824)" fill="#111" font-size="26" font-family="FuturaBT-Book, Futura Bk BT"><tspan x="0" y="25">CONVERSION RATE OPTIMIZATION </tspan><tspan x="0" y="56">(CRO)</tspan></text>
      <g id="Group_107" data-name="Group 107" transform="translate(-3382 -3929)">
        <circle id="Ellipse_11" data-name="Ellipse 11" cx="19.5" cy="19.5" r="19.5" transform="translate(4586 4351)" fill="#e0e0e0" opacity="0.45"/>
        <circle id="Ellipse_8" data-name="Ellipse 8" cx="8.5" cy="8.5" r="8.5" transform="translate(4597 4362)" fill="#e0e0e0"/>
      </g>
      <g id="Group_115" data-name="Group 115" transform="translate(-3354 -4048)">
        <circle id="Ellipse_11-2" data-name="Ellipse 11" cx="19.5" cy="19.5" r="19.5" transform="translate(4586 4351)" fill="#e0e0e0" opacity="0.45"/>
        <circle id="Ellipse_8-2" data-name="Ellipse 8" cx="8.5" cy="8.5" r="8.5" transform="translate(4597 4362)" fill="#e0e0e0"/>
      </g>
      <g id="Group_111" data-name="Group 111" transform="translate(-3384 -3791)">
        <circle id="Ellipse_11-3" data-name="Ellipse 11" cx="19.5" cy="19.5" r="19.5" transform="translate(4586 4351)" fill="#e0e0e0" opacity="0.45"/>
        <circle id="Ellipse_8-3" data-name="Ellipse 8" cx="8.5" cy="8.5" r="8.5" transform="translate(4597 4362)" fill="#e0e0e0"/>
      </g>
      <g id="Group_130" data-name="Group 130" transform="translate(-3364 -3663)">
        <circle id="Ellipse_11-4" data-name="Ellipse 11" cx="19.5" cy="19.5" r="19.5" transform="translate(4586 4351)" fill="#e0e0e0" opacity="0.45"/>
        <circle id="Ellipse_8-4" data-name="Ellipse 8" cx="8.5" cy="8.5" r="8.5" transform="translate(4597 4362)" fill="#e0e0e0"/>
      </g>
      <g id="Group_131" data-name="Group 131" transform="translate(-3309 -3527)">
        <circle id="Ellipse_11-5" data-name="Ellipse 11" cx="19.5" cy="19.5" r="19.5" transform="translate(4586 4351)" fill="#e0e0e0" opacity="0.45"/>
        <circle id="Ellipse_8-5" data-name="Ellipse 8" cx="8.5" cy="8.5" r="8.5" transform="translate(4597 4362)" fill="#e0e0e0"/>
      </g>
    </g>
  </g>
</svg>
